<?xml version="1.0" encoding="iso-8859-1"?>
<!-- Generator: Adobe Illustrator 19.0.0, SVG Export Plug-In . SVG Version: 6.00 Build 0)  -->
<svg version="1.1" id="Layer_1" xmlns="http://www.w3.org/2000/svg" xmlns:xlink="http://www.w3.org/1999/xlink" x="0px" y="0px"
	 viewBox="0 0 306.389 306.389" style="enable-background:new 0 0 306.389 306.389;" xml:space="preserve">
<g>
	<path style="fill:#324D5B;" d="M81.385,0h143.619c10.57,0,19.149,8.579,19.149,19.159v268.09c0,10.57-8.579,19.14-19.149,19.14
		H81.385c-10.57,0-19.149-8.569-19.149-19.14V19.159C62.236,8.579,70.815,0,81.385,0z"/>
	<path style="fill:#576E78;" d="M81.385,38.308v220.207h143.619V38.308C225.005,38.308,81.385,38.308,81.385,38.308z
		 M153.195,268.099c-7.928,0-14.362,6.425-14.362,14.352c0,7.937,6.434,14.372,14.362,14.372c7.928,0,14.362-6.434,14.362-14.372
		C167.557,274.524,161.123,268.099,153.195,268.099z"/>
</g>
<g>
</g>
<g>
</g>
<g>
</g>
<g>
</g>
<g>
</g>
<g>
</g>
<g>
</g>
<g>
</g>
<g>
</g>
<g>
</g>
<g>
</g>
<g>
</g>
<g>
</g>
<g>
</g>
<g>
</g>
</svg>
