<?xml version="1.0" encoding="iso-8859-1"?>
<!-- Generator: Adobe Illustrator 19.0.0, SVG Export Plug-In . SVG Version: 6.00 Build 0)  -->
<svg version="1.1" id="Layer_1" xmlns="http://www.w3.org/2000/svg" xmlns:xlink="http://www.w3.org/1999/xlink" x="0px" y="0px"
	 viewBox="0 0 512 512" style="enable-background:new 0 0 512 512;" xml:space="preserve">
<path style="fill:#889391;" d="M510.073,287.465C511.338,277.152,512,266.654,512,256C512,114.616,397.384,0,256,0S0,114.616,0,256
	c0,117.795,79.565,216.991,187.88,246.82L510.073,287.465z"/>
<path style="fill:#1A534A;" d="M510.073,287.465l-69.308-69.308L256,114.592L71.235,218.157l61.774,61.774l-32.835,135.184
	l87.706,87.706C209.572,508.793,232.41,512,256,512C386.731,512,494.563,414.004,510.073,287.465z"/>
<polygon style="fill:#FDE59A;" points="440.765,218.157 256,33.391 215.406,224.253 256,415.114 411.826,415.114 411.826,218.157 
	"/>
<g>
	<polygon style="fill:#FEF2CC;" points="71.235,218.157 100.174,218.157 100.174,415.114 256,415.114 256,33.391 	"/>
	<polygon style="fill:#FEF2CC;" points="389.565,198.433 389.565,392.849 256,392.849 222.609,222.979 256,64.868 	"/>
</g>
<polygon style="fill:#FFFFFF;" points="256,64.868 256,392.849 122.435,392.849 122.435,198.433 "/>
<path style="fill:#889391;" d="M256,369.733l-20.399-61.197L256,97.745l33.998,33.998l-13.599,13.599l13.599,13.599l-13.599,13.599
	l13.599,13.599l-13.599,13.599l13.599,13.599l-13.599,13.599v20.399h13.599v17.867c14.422,10.507,23.799,27.52,23.799,46.73
	C313.797,343.856,287.921,369.733,256,369.733z"/>
<path style="fill:#B0B7B6;" d="M198.203,311.935c0-19.21,9.377-36.222,23.799-46.73v-17.867h13.599V118.145L256,97.745v271.987
	C224.079,369.733,198.203,343.856,198.203,311.935z"/>
<circle style="fill:#FEF2CC;" cx="256" cy="330.774" r="16.696"/>
<g>
</g>
<g>
</g>
<g>
</g>
<g>
</g>
<g>
</g>
<g>
</g>
<g>
</g>
<g>
</g>
<g>
</g>
<g>
</g>
<g>
</g>
<g>
</g>
<g>
</g>
<g>
</g>
<g>
</g>
</svg>
