<?xml version="1.0" encoding="iso-8859-1"?>
<!-- Generator: Adobe Illustrator 19.0.0, SVG Export Plug-In . SVG Version: 6.00 Build 0)  -->
<svg version="1.1" id="Layer_1" xmlns="http://www.w3.org/2000/svg" xmlns:xlink="http://www.w3.org/1999/xlink" x="0px" y="0px"
	 viewBox="0 0 512 512" style="enable-background:new 0 0 512 512;" xml:space="preserve">
<path style="fill:#BFE4F8;" d="M426.405,399.216c-3.123-40.339-36.82-72.105-77.961-72.105c-8.869,0-17.385,1.498-25.333,4.218
	c-15.623-19.88-39.868-32.663-67.112-32.663s-51.489,12.783-67.112,32.663c-7.947-2.721-16.464-4.218-25.333-4.218
	c-41.141,0-74.837,31.767-77.961,72.105C37.224,406.009,0,447.536,0,497.778h512C512,447.536,474.776,406.009,426.405,399.216z"/>
<path style="fill:#93C7EF;" d="M256,497.778h256c0-50.241-37.224-91.769-85.595-98.561c-3.123-40.339-36.82-72.105-77.961-72.105
	c-8.869,0-17.385,1.498-25.333,4.218c-15.623-19.88-39.868-32.663-67.112-32.663V497.778z"/>
<circle style="fill:#FFDA44;" cx="256" cy="412.444" r="56.889"/>
<path style="fill:#FF9811;" d="M291.556,384c0,17.279-8.501,34.78-25.266,52.018c-3.456,3.554-6.953,6.763-10.29,9.594
	c-3.337-2.832-6.834-6.04-10.29-9.594c-16.765-17.237-25.266-34.739-25.266-52.018H291.556 M256,341.333L177.778,384
	c0,71.111,78.222,113.778,78.222,113.778S334.222,455.111,334.222,384L256,341.333z"/>
<path style="fill:#FF5023;" d="M256,341.333V384h35.556c0,17.279-8.501,34.78-25.266,52.018c-3.456,3.554-6.953,6.763-10.29,9.594
	v52.166c0,0,78.222-42.667,78.222-113.778L256,341.333z"/>
<path style="fill:#CCE9F9;" d="M334.222,384V128C334.222,56.889,256,14.222,256,14.222S177.778,56.889,177.778,128v256H334.222z"/>
<path style="fill:#93C7EF;" d="M334.222,384V128C334.222,56.889,256,14.222,256,14.222V384H334.222z"/>
<g>
	<rect x="234.667" y="227.556" style="fill:#1E2E3B;" width="42.667" height="99.556"/>
	<rect x="234.667" y="128" style="fill:#1E2E3B;" width="42.667" height="42.667"/>
</g>
<rect x="177.778" y="341.333" style="fill:#78B9EB;" width="156.444" height="42.667"/>
<rect x="256" y="341.333" style="fill:#5A8BB0;" width="78.222" height="42.667"/>
<g>
</g>
<g>
</g>
<g>
</g>
<g>
</g>
<g>
</g>
<g>
</g>
<g>
</g>
<g>
</g>
<g>
</g>
<g>
</g>
<g>
</g>
<g>
</g>
<g>
</g>
<g>
</g>
<g>
</g>
</svg>
