<?xml version="1.0" encoding="iso-8859-1"?>
<!-- Generator: Adobe Illustrator 19.0.0, SVG Export Plug-In . SVG Version: 6.00 Build 0)  -->
<svg version="1.1" id="Layer_1" xmlns="http://www.w3.org/2000/svg" xmlns:xlink="http://www.w3.org/1999/xlink" x="0px" y="0px"
	 viewBox="0 0 512 512" style="enable-background:new 0 0 512 512;" xml:space="preserve">
<path style="fill:#414D53;" d="M510.205,286.324C511.378,276.378,512,266.262,512,256C512,114.616,397.385,0,256,0
	C114.616,0,0,114.616,0,256c0,119.42,81.771,219.737,192.374,248.026L510.205,286.324z"/>
<path style="fill:#313A3E;" d="M510.205,286.324l-62.681-62.681l-51.28-35.538l-197.66-79.677L166.957,76.8l-33.272,33.272
	l-11.25,324.015l69.939,69.939C212.717,509.23,234.035,512,256,512C387.123,512,495.203,413.413,510.205,286.324z"/>
<g>
	<rect x="122.435" y="76.8" style="fill:#C4D3D9;" width="44.522" height="104.626"/>
	<polygon style="fill:#C4D3D9;" points="389.565,181.426 256,47.861 233.739,289.391 300.522,434.087 389.565,434.087 	"/>
</g>
<polygon style="fill:#FFFFFF;" points="122.435,181.426 122.435,434.087 211.478,434.087 256,267.13 256,47.861 "/>
<polygon style="fill:#A65A3A;" points="300.522,267.13 256,267.13 233.739,350.609 256,434.087 300.522,434.087 "/>
<rect x="211.478" y="267.13" style="fill:#D3754F;" width="44.522" height="166.957"/>
<polygon style="fill:#E0315B;" points="256,32.12 244.87,63.603 256,63.603 431.782,239.383 447.522,223.643 "/>
<polygon style="fill:#E64A55;" points="64.477,223.643 80.218,239.383 256,63.603 256,32.12 "/>
<g>
</g>
<g>
</g>
<g>
</g>
<g>
</g>
<g>
</g>
<g>
</g>
<g>
</g>
<g>
</g>
<g>
</g>
<g>
</g>
<g>
</g>
<g>
</g>
<g>
</g>
<g>
</g>
<g>
</g>
</svg>
