<?xml version="1.0" encoding="iso-8859-1"?>
<!-- Generator: Adobe Illustrator 19.0.0, SVG Export Plug-In . SVG Version: 6.00 Build 0)  -->
<svg version="1.1" id="Layer_1" xmlns="http://www.w3.org/2000/svg" xmlns:xlink="http://www.w3.org/1999/xlink" x="0px" y="0px"
	 viewBox="0 0 473.931 473.931" style="enable-background:new 0 0 473.931 473.931;" xml:space="preserve">
<circle style="fill:#4ABC96;" cx="236.966" cy="236.966" r="236.966"/>
<path style="fill:#A07238;" d="M113.895,379.224c-5.306,5.302-13.916,5.302-19.214,0l0,0c-5.313-5.313-5.313-13.912,0-19.221
	l99.456-99.46c5.298-5.291,13.901-5.291,19.214,0.011l0,0c5.306,5.295,5.306,13.893-0.007,19.21L113.895,379.224z"/>
<path style="fill:#D4A160;" d="M127.182,382.868c-4.647,4.636-16.501,0.318-26.477-9.665l0,0
	c-9.991-9.983-14.308-21.841-9.669-26.477l105.626-105.637c4.647-4.636,16.501-0.311,26.484,9.672l0,0
	c9.983,9.964,14.316,21.822,9.661,26.484L127.182,382.868z"/>
<path style="fill:#60C3B6;" d="M277.627,293.956c-53.941,0-97.686-43.734-97.686-97.686c0-53.956,43.745-97.682,97.686-97.682
	c53.964,0,97.686,43.73,97.686,97.682C375.317,250.223,331.591,293.956,277.627,293.956z"/>
<circle style="fill:#83CECA;" cx="283.401" cy="205.685" r="76.74"/>
<path style="fill:#A07238;" d="M191.773,245.504L177.88,259.39c0,0,12.688,28.026,39.977,32.329l10.077-10.073v-13.029
	L191.773,245.504z"/>
<path style="fill:#EBEDEF;" d="M201.909,120.545c-41.833,41.822-41.833,109.637,0,151.451
	c41.833,41.833,109.63,41.833,151.455,0.011c41.825-41.825,41.825-109.641,0-151.463C311.539,78.715,243.738,78.715,201.909,120.545
	z M334.274,252.913c-31.27,31.277-81.989,31.285-113.274,0c-31.285-31.274-31.285-82.004,0-113.274
	c31.285-31.285,82.004-31.285,113.274-0.007C365.566,170.916,365.551,221.636,334.274,252.913z"/>
<path style="opacity:0.7;fill:#FFFFFF;enable-background:new    ;" d="M224.629,185.793c-2.002,4.37-0.101,9.575,4.269,11.584
	c4.385,2.043,9.59,0.097,11.599-4.254c0,0,0.086-0.202,0.513-0.969c3.027-5.545,17.627-29.088,48.504-31.962
	c3.742-0.367,6.694-3.027,7.607-6.466c0.247-0.969,0.352-1.998,0.247-3.072c-0.483-4.797-4.737-8.333-9.538-7.85
	C242.316,147.489,225.074,184.91,224.629,185.793z"/>
<g>
</g>
<g>
</g>
<g>
</g>
<g>
</g>
<g>
</g>
<g>
</g>
<g>
</g>
<g>
</g>
<g>
</g>
<g>
</g>
<g>
</g>
<g>
</g>
<g>
</g>
<g>
</g>
<g>
</g>
</svg>
